<?xml version="1.0" encoding="UTF-8" standalone="no"?>
<!-- Generator: Adobe Illustrator 13.0.3, SVG Export Plug-In . SVG Version: 6.00 Build 14948)  -->

<svg
   xmlns:dc="http://purl.org/dc/elements/1.1/"
   xmlns:cc="http://creativecommons.org/ns#"
   xmlns:rdf="http://www.w3.org/1999/02/22-rdf-syntax-ns#"
   xmlns:svg="http://www.w3.org/2000/svg"
   xmlns="http://www.w3.org/2000/svg"
   xmlns:sodipodi="http://sodipodi.sourceforge.net/DTD/sodipodi-0.dtd"
   xmlns:inkscape="http://www.inkscape.org/namespaces/inkscape"
   version="1.1"
   id="minesweeper-counter"
   x="0px"
   y="0px"
   width="288.194"
   height="190.282"
   viewBox="0 0 288.194 190.282"
   enable-background="new 0 0 76 76"
   xml:space="preserve"
   sodipodi:docname="counter.svg"
   inkscape:version="0.92.2 (5c3e80d, 2017-08-06)"><metadata
     id="metadata112"><rdf:RDF><cc:Work
         rdf:about=""><dc:format>image/svg+xml</dc:format><dc:type
           rdf:resource="http://purl.org/dc/dcmitype/StillImage" /><dc:title></dc:title></cc:Work></rdf:RDF></metadata><defs
     id="defs110" /><sodipodi:namedview
     pagecolor="#ffffff"
     bordercolor="#666666"
     borderopacity="1"
     objecttolerance="10"
     gridtolerance="10"
     guidetolerance="10"
     inkscape:pageopacity="0"
     inkscape:pageshadow="2"
     inkscape:window-width="1881"
     inkscape:window-height="1028"
     id="namedview108"
     showgrid="false"
     inkscape:zoom="1.3996711"
     inkscape:cx="41.382948"
     inkscape:cy="6.0450449"
     inkscape:window-x="39"
     inkscape:window-y="24"
     inkscape:window-maximized="1"
     inkscape:current-layer="レイヤー_1" /><rect
     y="-2.3099336e-05"
     x="0"
     height="190.28203"
     width="288.19412"
     id="SvgjsRect1009"
     style="stroke-width:0.92369914" /><g
     id="r1"
     inkscape:label="#g201"><polygon
       inkscape:label="#SvgjsPolygon1011"
       transform="matrix(0.92369913,0,0,0.92369913,2.7710974,2.7710743)"
       style="fill:#8b0000;fill-opacity:0.6;stroke:#000000;stroke-width:4"
       points="100,0 75,25 25,25 0,0 "
       id="r1-0" /><polygon
       inkscape:label="#SvgjsPolygon1020"
       style="fill:#8b0000;fill-opacity:0.6;stroke:#000000;stroke-width:4"
       transform="matrix(0.92369913,0,0,-0.92369913,2.7710974,349.15825)"
       points="100,175 75,200 25,200 0,175 "
       id="r1-6" /><polygon
       inkscape:label="#SvgjsPolygon1012"
       transform="matrix(0.92369913,0,0,0.92369913,2.7710974,2.7710743)"
       style="fill:#8b0000;fill-opacity:0.6;stroke:#000000;stroke-width:4"
       points="12.5,100 25,87.5 25,25 0,0 0,87.5 "
       id="r1-1" /><polygon
       inkscape:label="#SvgjsPolygon1018"
       style="fill:#8b0000;fill-opacity:0.6;stroke:#000000;stroke-width:4"
       transform="matrix(-0.92369913,0,0,-0.92369913,164.41845,279.88081)"
       points="87.5,200 100,187.5 100,125 75,100 75,187.5 "
       id="r1-5" /><polygon
       inkscape:label="#SvgjsPolygon1016"
       style="fill:#8b0000;fill-opacity:0.6;stroke:#000000;stroke-width:4"
       transform="matrix(0.92369913,0,0,-0.92369913,2.7710974,279.88081)"
       points="12.5,200 25,187.5 25,125 0,100 0,187.5 "
       id="r1-4" /><polygon
       inkscape:label="#SvgjsPolygon1014"
       style="fill:#8b0000;fill-opacity:0.6;stroke:#000000;stroke-width:4"
       transform="matrix(-0.92369913,0,0,0.92369913,25.863576,2.7710743)"
       points="-62.5,100 -50,87.5 -50,25 -75,0 -75,87.5 "
       id="r1-2" /><polygon
       inkscape:label="#SvgjsPolygon1021"
       transform="matrix(0.92369913,0,0,0.92369913,2.7710974,2.7710743)"
       style="fill:#8b0000;fill-opacity:0.6;stroke:#000000;stroke-width:4"
       points="25,112.5 12.5,100 25,87.5 75,87.5 87.5,100 75,112.5 "
       id="r1-3" /></g><g
     id="r2"
     inkscape:label="#g210"><polygon
       inkscape:label="#SvgjsPolygon1023"
       transform="matrix(0.92369913,0,0,0.92369913,97.912108,2.7710743)"
       style="fill:#8b0000;fill-opacity:0.6;stroke:#000000;stroke-width:4"
       points="100,0 75,25 25,25 0,0 "
       id="r2-0" /><polygon
       inkscape:label="#SvgjsPolygon1032"
       style="fill:#8b0000;fill-opacity:0.6;stroke:#000000;stroke-width:4"
       transform="matrix(0.92369913,0,0,-0.92369913,97.912108,349.15825)"
       points="100,175 75,200 25,200 0,175 "
       id="r2-6" /><polygon
       inkscape:label="#SvgjsPolygon1024"
       transform="matrix(0.92369913,0,0,0.92369913,97.912108,2.7710743)"
       style="fill:#8b0000;fill-opacity:0.6;stroke:#000000;stroke-width:4"
       points="12.5,100 25,87.5 25,25 0,0 0,87.5 "
       id="r2-1" /><polygon
       inkscape:label="#SvgjsPolygon1030"
       style="fill:#8b0000;fill-opacity:0.6;stroke:#000000;stroke-width:4"
       transform="matrix(-0.92369913,0,0,-0.92369913,259.55946,279.88081)"
       points="87.5,200 100,187.5 100,125 75,100 75,187.5 "
       id="r2-5" /><polygon
       inkscape:label="#SvgjsPolygon1028"
       style="fill:#8b0000;fill-opacity:0.6;stroke:#000000;stroke-width:4"
       transform="matrix(0.92369913,0,0,-0.92369913,97.912108,279.88081)"
       points="12.5,200 25,187.5 25,125 0,100 0,187.5 "
       id="r2-4" /><polygon
       inkscape:label="#SvgjsPolygon1026"
       style="fill:#8b0000;fill-opacity:0.6;stroke:#000000;stroke-width:4"
       transform="matrix(-0.92369913,0,0,0.92369913,121.00459,2.7710743)"
       points="-62.5,100 -50,87.5 -50,25 -75,0 -75,87.5 "
       id="r2-2" /><polygon
       inkscape:label="#SvgjsPolygon1033"
       transform="matrix(0.92369913,0,0,0.92369913,97.912108,2.7710743)"
       style="fill:#8b0000;fill-opacity:0.6;stroke:#000000;stroke-width:4"
       points="25,112.5 12.5,100 25,87.5 75,87.5 87.5,100 75,112.5 "
       id="r2-3" /></g><g
     id="r3"
     inkscape:label="#g219"><polygon
       inkscape:label="#SvgjsPolygon1035"
       transform="matrix(0.92369913,0,0,0.92369913,193.05312,2.7710743)"
       style="fill:#8b0000;fill-opacity:0.6;stroke:#000000;stroke-width:4"
       points="100,0 75,25 25,25 0,0 "
       id="r3-0" /><polygon
       inkscape:label="#SvgjsPolygon1044"
       style="fill:#8b0000;fill-opacity:0.6;stroke:#000000;stroke-width:4"
       transform="matrix(0.92369913,0,0,-0.92369913,193.05312,349.15825)"
       points="100,175 75,200 25,200 0,175 "
       id="r3-6" /><polygon
       inkscape:label="#SvgjsPolygon1036"
       transform="matrix(0.92369913,0,0,0.92369913,193.05312,2.7710743)"
       style="fill:#8b0000;fill-opacity:0.6;stroke:#000000;stroke-width:4"
       points="12.5,100 25,87.5 25,25 0,0 0,87.5 "
       id="r3-1" /><polygon
       inkscape:label="#SvgjsPolygon1042"
       style="fill:#8b0000;fill-opacity:0.6;stroke:#000000;stroke-width:4"
       transform="matrix(-0.92369913,0,0,-0.92369913,354.70047,279.88081)"
       points="87.5,200 100,187.5 100,125 75,100 75,187.5 "
       id="r3-5" /><polygon
       inkscape:label="#SvgjsPolygon1040"
       style="fill:#8b0000;fill-opacity:0.6;stroke:#000000;stroke-width:4"
       transform="matrix(0.92369913,0,0,-0.92369913,193.05312,279.88081)"
       points="12.5,200 25,187.5 25,125 0,100 0,187.5 "
       id="r3-4" /><polygon
       inkscape:label="#SvgjsPolygon1038"
       style="fill:#8b0000;fill-opacity:0.6;stroke:#000000;stroke-width:4"
       transform="matrix(-0.92369913,0,0,0.92369913,216.1456,2.7710743)"
       points="-62.5,100 -50,87.5 -50,25 -75,0 -75,87.5 "
       id="r3-2" /><polygon
       inkscape:label="#SvgjsPolygon1045"
       transform="matrix(0.92369913,0,0,0.92369913,193.05312,2.7710743)"
       style="fill:#8b0000;fill-opacity:0.6;stroke:#000000;stroke-width:4"
       points="25,112.5 12.5,100 25,87.5 75,87.5 87.5,100 75,112.5 "
       id="r3-3" /></g></svg>